:FULLY-SPECIFIED
:FORCE-ALL-JOINTS-BE-3DOF
:DEGREES
408
root 7.18138 13.7899 -34.2523 158.903 75.2249 152.733
lfemur 18.794 -2.63589 -10.3863
ltibia 26.9226 0 0
lfoot -23.3588 33.1584 0
ltoes -26.5699 0 0
rfemur -66.2627 -16.2857 8.2922
rtibia 79.0774 0 0
rfoot -13.954 12.7782 0
rtoes 8.17117 0 0
lowerback 8.43049 4.88028 -11.7665
upperback -2.54719 5.1499 -1.19047
thorax -8.45079 3.0811 4.44475
lowerneck 0.565921 -11.6309 -11.3592
upperneck 3.32619 -15.816 9.2652
head 2.53358 -7.9077 4.01844
lclavicle -4.50956e-15 1.05552e-14 0
lhumerus -70.0883 -20.0085 106.422
lradius 100.313 0 0
lwrist 50.7203 0 0
lhand -9.79958 42.8353 0
lfingers 7.12502 0 0
lthumb 15.8819 72.3937 0
rclavicle 1.26682e-14 3.64505e-15 0
rhumerus 49.7046 -4.76195 -60.2643
rradius 19.9146 0 0
rwrist 18.7918 0 0
rhand -21.9236 -33.6447 0
rfingers 7.12502 0 0
rthumb 4.59338 -63.1693 0
409
root 7.18307 13.789 -34.2546 159.162 75.2329 152.989
lfemur 18.7243 -2.64011 -10.3681
ltibia 27.4081 0 0
lfoot -23.3775 33.1698 0
ltoes -26.3166 0 0
rfemur -66.261 -16.2863 8.29255
rtibia 79.079 0 0
rfoot -13.9011 12.7215 0
rtoes 7.94572 0 0
lowerback 8.43343 4.88416 -11.6738
upperback -2.55358 5.16431 -1.1933
thorax -8.45194 3.0835 4.38784
lowerneck 0.552846 -11.6394 -11.3478
upperneck 3.28713 -15.8252 9.27497
head 2.52485 -7.91174 4.01944
lclavicle -4.37326e-15 1.05356e-14 0
lhumerus -70.0777 -20.0466 106.435
lradius 100.305 0 0
lwrist 50.7284 0 0
lhand -9.78599 42.812 0
lfingers 7.12502 0 0
lthumb 15.8896 72.42 0
rclavicle 1.26273e-14 3.87533e-15 0
rhumerus 49.7031 -4.69719 -60.2226
rradius 19.9298 0 0
rwrist 18.7229 0 0
rhand -21.8388 -33.7988 0
rfingers 7.12502 0 0
rthumb 4.62544 -63.0839 0
410
root 7.18525 13.7872 -34.2555 159.247 75.2199 153.057
lfemur 18.524 -2.65224 -10.3157
ltibia 27.9057 0 0
lfoot -23.3915 33.1784 0
ltoes -26.0237 0 0
rfemur -66.2541 -16.2729 8.2934
rtibia 79.0806 0 0
rfoot -13.8415 12.6575 0
rtoes 7.71582 0 0
lowerback 8.41829 4.88683 -11.6789
upperback -2.56099 5.1696 -1.18184
thorax -8.454 3.08704 4.40263
lowerneck 0.55933 -11.6358 -11.376
upperneck 3.24848 -15.8198 9.28579
head 2.51478 -7.90954 4.02848
lclavicle -4.458e-15 1.05527e-14 0
lhumerus -70.0608 -20.1075 106.455
lradius 100.299 0 0
lwrist 50.7359 0 0
lhand -9.77229 42.7886 0
lfingers 7.12502 0 0
lthumb 15.899 72.4525 0
rclavicle 1.25832e-14 4.12295e-15 0
rhumerus 49.7016 -4.63642 -60.1835
rradius 19.9468 0 0
rwrist 18.6507 0 0
rhand -21.752 -33.9565 0
rfingers 7.12502 0 0
rthumb 4.65504 -63.0051 0
411
root 7.1863 13.7847 -34.2571 159.297 75.1858 153.078
lfemur 18.206 -2.67149 -10.2326
ltibia 28.4106 0 0
lfoot -23.4003 33.1837 0
ltoes -25.6973 0 0
rfemur -66.2343 -16.234 8.29585
rtibia 79.0821 0 0
rfoot -13.7761 12.5873 0
rtoes 7.48443 0 0
lowerback 8.40914 4.89058 -11.6943
upperback -2.57162 5.17394 -1.17575
thorax -8.46346 3.09095 4.41678
lowerneck 0.553975 -11.6349 -11.3675
upperneck 3.2208 -15.8159 9.26617
head 2.50468 -7.9078 4.02246
lclavicle -4.70396e-15 1.06022e-14 0
lhumerus -70.0381 -20.1893 106.483
lradius 100.294 0 0
lwrist 50.7424 0 0
lhand -9.7587 42.7653 0
lfingers 7.12502 0 0
lthumb 15.91 72.4905 0
rclavicle 1.25367e-14 4.38474e-15 0
rhumerus 49.7003 -4.5803 -60.1474
rradius 19.9653 0 0
rwrist 18.5759 0 0
rhand -21.6645 -34.1155 0
rfingers 7.12502 0 0
rthumb 4.68183 -62.9338 0
412
root 7.18724 13.784 -34.2582 159.48 75.1906 153.212
lfemur 17.7836 -2.69707 -10.1221
ltibia 28.9178 0 0
lfoot -23.4034 33.1856 0
ltoes -25.3435 0 0
rfemur -66.2025 -16.1716 8.29979
rtibia 79.0835 0 0
rfoot -13.7058 12.5119 0
rtoes 7.25453 0 0
lowerback 8.37509 4.887 -11.6561
upperback -2.58456 5.17754 -1.17495
thorax -8.45461 3.09105 4.39804
lowerneck 0.537285 -11.6305 -11.3368
upperneck 3.19467 -15.8066 9.24884
head 2.49476 -7.90268 4.01368
lclavicle -5.09874e-15 1.06818e-14 0
lhumerus -70.0103 -20.2898 106.516
lradius 100.289 0 0
lwrist 50.748 0 0
lhand -9.7455 42.7427 0
lfingers 7.12502 0 0
lthumb 15.9225 72.5334 0
rclavicle 1.24881e-14 4.65756e-15 0
rhumerus 49.6991 -4.52952 -60.1147
rradius 19.985 0 0
rwrist 18.4992 0 0
rhand -21.5777 -34.2732 0
rfingers 7.12502 0 0
rthumb 4.70546 -62.8709 0
413
root 7.18822 13.7838 -34.26 159.553 75.156 153.239
lfemur 17.2696 -2.72819 -9.9877
ltibia 29.4227 0 0
lfoot -23.3998 33.1631 0
ltoes -24.9683 0 0
rfemur -66.1597 -16.0878 8.30508
rtibia 79.0848 0 0
rfoot -13.6315 12.4321 0
rtoes 7.02908 0 0
lowerback 8.33047 4.87145 -11.599
upperback -2.58068 5.16826 -1.2068
thorax -8.41337 3.08127 4.33826
lowerneck 0.518421 -11.6213 -11.3049
upperneck 3.16499 -15.7911 9.24182
head 2.48428 -7.89433 4.00813
lclavicle -5.62994e-15 1.07889e-14 0
lhumerus -69.9778 -20.4069 106.555
lradius 100.287 0 0
lwrist 50.7526 0 0
lhand -9.73291 42.7211 0
lfingers 7.12502 0 0
lthumb 15.9362 72.5807 0
rclavicle 1.24382e-14 4.93826e-15 0
rhumerus 49.698 -4.48471 -60.0859
rradius 20.0056 0 0
rwrist 18.4214 0 0
rhand -21.4929 -34.4273 0
rfingers 7.12502 0 0
rthumb 4.72558 -62.8173 0
414
root 7.1889 13.7838 -34.2613 159.808 75.1579 153.448
lfemur 16.6773 -2.76405 -9.83282
ltibia 29.9203 0 0
lfoot -23.3893 33.0978 0
ltoes -24.5779 0 0
rfemur -66.107 -15.9847 8.31159
rtibia 79.086 0 0
rfoot -13.554 12.3489 0
rtoes 6.81103 0 0
lowerback 8.28851 4.86633 -11.5533
upperback -2.58078 5.17351 -1.18193
thorax -8.38768 3.08112 4.34237
lowerneck 0.485227 -11.6158 -11.3047
upperneck 3.15811 -15.7788 9.21056
head 2.48369 -7.88795 3.99804
lclavicle -6.28515e-15 1.09209e-14 0
lhumerus -69.9413 -20.5385 106.599
lradius 100.286 0 0
lwrist 50.756 0 0
lhand -9.72119 42.7011 0
lfingers 7.12502 0 0
lthumb 15.951 72.6316 0
rclavicle 1.23874e-14 5.22369e-15 0
rhumerus 49.6971 -4.44657 -60.0613
rradius 20.0268 0 0
rwrist 18.3433 0 0
rhand -21.4114 -34.5754 0
rfingers 7.12502 0 0
rthumb 4.74184 -62.7741 0
